<svg width="108" height="108" viewBox="0 0 108 108" fill="none" xmlns="http://www.w3.org/2000/svg">
<path d="M63 9H27C24.6131 9 22.3239 9.94821 20.636 11.636C18.9482 13.3239 18 15.6131 18 18V90C18 92.3869 18.9482 94.6761 20.636 96.364C22.3239 98.0518 24.6131 99 27 99H81C83.3869 99 85.6761 98.0518 87.364 96.364C89.0518 94.6761 90 92.3869 90 90V36L63 9ZM42.507 78.354C43.7445 78.354 45.1215 78.0795 45.936 77.76L46.557 80.9685C45.801 81.3465 44.1 81.7515 41.8905 81.7515C35.604 81.7515 32.364 77.841 32.364 72.657C32.3595 66.456 36.7875 63 42.291 63C44.424 63 46.0395 63.432 46.7685 63.81L45.9315 67.077C44.8356 66.6259 43.6606 66.3979 42.4755 66.4065C39.2085 66.4065 36.6705 68.3775 36.6705 72.423C36.675 76.059 38.8395 78.354 42.507 78.354ZM53.7165 81.7515C51.642 81.7515 49.59 81.216 48.564 80.649L49.401 77.247C50.508 77.814 52.209 78.381 53.964 78.381C55.854 78.381 56.853 77.598 56.853 76.41C56.853 75.276 55.989 74.628 53.802 73.845C50.778 72.792 48.8115 71.1225 48.8115 68.4765C48.8115 65.376 51.399 63 55.692 63C57.7395 63 59.2515 63.432 60.3315 63.9135L59.4135 67.2345C58.2271 66.6597 56.9248 66.3641 55.6065 66.3705C53.8245 66.3705 52.965 67.185 52.965 68.1255C52.965 69.2865 53.991 69.7995 56.3355 70.6905C59.5485 71.8785 61.0605 73.5525 61.0605 76.113C61.056 79.164 58.707 81.7515 53.7165 81.7515ZM68.2965 81.7515C66.222 81.7515 64.17 81.216 63.144 80.649L63.981 77.247C65.088 77.814 66.789 78.381 68.544 78.381C70.434 78.381 71.433 77.598 71.433 76.41C71.433 75.276 70.569 74.628 68.382 73.845C65.358 72.792 63.3915 71.1225 63.3915 68.4765C63.3915 65.376 65.979 63 70.272 63C72.3195 63 73.8315 63.432 74.9115 63.9135L73.9935 67.2345C72.8071 66.6597 71.5048 66.3641 70.1865 66.3705C68.4045 66.3705 67.545 67.185 67.545 68.1255C67.545 69.2865 68.571 69.7995 70.9155 70.6905C74.1285 71.8785 75.6405 73.5525 75.6405 76.113C75.6405 79.164 73.287 81.7515 68.2965 81.7515ZM63 40.5H58.5V18L81 40.5H63Z" fill="#CC264E"/>
</svg>
