<svg width="108" height="108" viewBox="0 0 108 108" fill="none" xmlns="http://www.w3.org/2000/svg">
<path d="M90 27C90 17.244 73.5165 9 54 9C34.4835 9 18 17.244 18 27V36C18 45.756 34.4835 54 54 54C73.5165 54 90 45.756 90 36V27ZM54 85.5C34.4835 85.5 18 77.256 18 67.5V81C18 90.756 34.4835 99 54 99C73.5165 99 90 90.756 90 81V67.5C90 77.256 73.5165 85.5 54 85.5Z" fill="#CC264E"/>
<path d="M90 45C90 54.756 73.5165 63 54 63C34.4835 63 18 54.756 18 45V58.5C18 68.256 34.4835 76.5 54 76.5C73.5165 76.5 90 68.256 90 58.5V45Z" fill="#CC264E"/>
</svg>
