<svg width="108" height="108" viewBox="0 0 108 108" fill="none" xmlns="http://www.w3.org/2000/svg">
<path d="M68.994 39.006C72.8922 38.889 76.5915 37.2582 79.3075 34.4595C82.0235 31.6608 83.5426 27.9142 83.5426 24.0142C83.5426 20.1143 82.0235 16.3677 79.3075 13.569C76.5915 10.7703 72.8922 9.13948 68.994 9.02249H39.006C35.1078 9.13948 31.4085 10.7703 28.6925 13.569C25.9765 16.3677 24.4574 20.1143 24.4574 24.0142C24.4574 27.9142 25.9765 31.6608 28.6925 34.4595C31.4085 37.2582 35.1078 38.889 39.006 39.006C35.0737 39.0741 31.3256 40.684 28.5688 43.4889C25.812 46.2939 24.2673 50.0694 24.2673 54.0022C24.2673 57.9351 25.812 61.7106 28.5688 64.5155C31.3256 67.3205 35.0737 68.9304 39.006 68.9985C35.0929 69.0944 31.3724 70.7162 28.6387 73.5176C25.9051 76.3191 24.3749 80.0783 24.3749 83.9925C24.3749 87.9067 25.9051 91.6659 28.6387 94.4673C31.3724 97.2688 35.0929 98.8906 39.006 98.9865C42.9827 98.9841 46.7958 97.403 49.6073 94.5906C52.4189 91.7782 53.9988 87.9647 54 83.988V39.006H68.994Z" fill="#CC264E"/>
<path d="M68.994 68.994C77.275 68.994 83.988 62.281 83.988 54C83.988 45.7191 77.275 39.006 68.994 39.006C60.713 39.006 54 45.7191 54 54C54 62.281 60.713 68.994 68.994 68.994Z" fill="#CC264E"/>
</svg>
