<svg width="108" height="108" viewBox="0 0 108 108" fill="none" xmlns="http://www.w3.org/2000/svg">
<path d="M54 58.635C58.4362 58.635 62.0325 55.0387 62.0325 50.6025C62.0325 46.1663 58.4362 42.57 54 42.57C49.5638 42.57 45.9675 46.1663 45.9675 50.6025C45.9675 55.0387 49.5638 58.635 54 58.635Z" fill="#CC264E"/>
<path d="M31.509 66.573L29.7315 66.1185C16.5285 62.784 8.955 57.114 8.955 50.5845C8.955 44.0505 16.533 38.385 29.7315 35.0505L31.509 34.6005L32.0085 36.36C33.3429 40.9666 35.0527 45.4562 37.1205 49.7835L37.503 50.5845L37.1205 51.3855C35.0505 55.719 33.336 60.21 32.0085 64.818L31.509 66.573ZM28.9125 39.1455C18.882 41.9715 12.7215 46.2825 12.7215 50.5845C12.7215 54.8775 18.8775 59.193 28.9125 62.0145C30.141 58.1085 31.626 54.288 33.345 50.5845C31.6135 46.8748 30.1327 43.0533 28.9125 39.1455ZM76.4865 66.573L75.9915 64.809C74.6535 60.2015 72.9424 55.7106 70.875 51.381L70.4925 50.5845L70.875 49.779C72.945 45.4545 74.6505 40.959 75.9915 36.351L76.4865 34.596L78.264 35.046C91.4715 38.3805 99.0405 44.046 99.0405 50.5845C99.0405 57.1185 91.467 62.784 78.264 66.1185L76.4865 66.573ZM74.6415 50.5845C76.4415 54.4815 77.94 58.3155 79.083 62.0145C89.118 59.193 95.2785 54.8775 95.2785 50.5845C95.2785 46.2825 89.1225 41.976 79.083 39.1455C77.8557 43.0521 76.372 46.8734 74.6415 50.5845Z" fill="#CC264E"/>
<path d="M28.8855 39.1275L28.3905 37.3725C24.6735 24.2865 25.7985 14.913 31.482 11.646C37.0395 8.42849 45.981 12.231 55.3455 21.8385L56.6235 23.1525L55.3455 24.462C52.0194 27.9211 48.9795 31.6443 46.2555 35.595L45.747 36.324L44.865 36.396C40.0751 36.7722 35.3239 37.5382 30.6585 38.6865L28.8855 39.1275ZM36.0045 14.247C34.9965 14.247 34.1055 14.4675 33.354 14.8995C29.628 17.046 28.971 24.5205 31.536 34.6095C35.5455 33.723 39.591 33.0885 43.668 32.733C46.0283 29.3852 48.6032 26.194 51.3765 23.1795C45.513 17.478 39.978 14.247 36.0045 14.247ZM71.991 90.675C66.645 90.675 59.778 86.643 52.65 79.326L51.3765 78.0165L52.65 76.7115C55.9766 73.2468 59.018 69.5192 61.7445 65.565L62.2485 64.845L63.1215 64.7595C67.9131 64.39 72.6661 63.6269 77.3325 62.478L79.11 62.028L79.6095 63.7875C83.3085 76.8645 82.188 86.2515 76.5135 89.5185C75.1357 90.2995 73.5746 90.6987 71.991 90.675ZM56.6235 77.985C62.4825 83.6865 68.022 86.922 71.991 86.922C73.0035 86.922 73.8945 86.697 74.6415 86.2695C78.372 84.1185 79.0335 76.6305 76.4595 66.5415C72.4545 67.4325 68.4045 68.0715 64.3185 68.427C61.9682 71.78 59.3975 74.9731 56.6235 77.985Z" fill="#CC264E"/>
<path d="M79.11 39.1275L77.3325 38.682C72.6663 37.5301 67.9133 36.7641 63.1215 36.3915L62.2485 36.315L61.7445 35.586C59.0218 31.6331 55.9801 27.9097 52.65 24.453L51.3765 23.1435L52.65 21.8385C62.01 12.2355 70.947 8.433 76.5135 11.646C82.1925 14.9175 83.322 24.291 79.6095 37.3725L79.11 39.1275ZM64.3185 32.733C68.6115 33.1155 72.6795 33.759 76.4595 34.6095C79.029 24.5205 78.372 17.046 74.6415 14.895C70.9335 12.7485 63.954 16.0335 56.6235 23.1795C59.3955 26.1945 61.9695 29.3805 64.3185 32.733ZM36.0045 90.675C34.4211 90.6976 32.8602 90.2984 31.482 89.5185C25.7985 86.2515 24.6735 76.869 28.386 63.7875L28.872 62.028L30.6495 62.478C34.9875 63.5715 39.7665 64.341 44.8605 64.7595L45.7335 64.845L46.242 65.565C48.96 69.516 52.002 73.2465 55.332 76.7115L56.61 78.0165L55.332 79.326C48.2085 86.6475 41.3415 90.675 36.0045 90.675ZM31.536 66.546C28.971 76.635 29.628 84.123 33.354 86.274C37.0665 88.389 44.0235 85.1265 51.3765 77.985C48.6043 74.9695 46.0294 71.7784 43.668 68.4315C39.5869 68.0706 35.5341 67.4407 31.536 66.546Z" fill="#CC264E"/>
<path d="M54 68.9085C50.9085 68.9085 47.736 68.778 44.55 68.5125L43.668 68.436L43.1595 67.707C41.3629 65.1236 39.6725 62.4678 38.0925 59.7465C36.5242 57.0178 35.0665 54.2271 33.723 51.381L33.345 50.5845L33.723 49.779C35.0685 46.935 36.522 44.145 38.0925 41.418C39.654 38.736 41.3595 36.054 43.1595 33.453L43.668 32.733L44.55 32.652C50.836 32.1255 57.155 32.1255 63.441 32.652L64.314 32.7375L64.8225 33.4575C68.4216 38.6269 71.5826 44.0879 74.2725 49.7835L74.646 50.589L74.2725 51.3855C71.59 57.085 68.4287 62.5466 64.8225 67.7115L64.314 68.4405L63.441 68.517C60.264 68.7735 57.087 68.9085 54 68.9085ZM45.747 64.8405C51.3045 65.259 56.6955 65.259 62.2485 64.8405C65.3485 60.3009 68.1042 55.5356 70.4925 50.5845C68.1126 45.6289 65.3566 40.863 62.2485 36.3285C56.7561 35.9055 51.2394 35.9055 45.747 36.3285C42.6363 40.8613 39.8801 45.6275 37.503 50.5845C39.8965 55.5329 42.6519 60.2978 45.747 64.8405Z" fill="#CC264E"/>
</svg>
