<svg width="108" height="108" viewBox="0 0 108 108" fill="none" xmlns="http://www.w3.org/2000/svg">
<path d="M63 9H27C24.6131 9 22.3239 9.94821 20.636 11.636C18.9482 13.3239 18 15.6131 18 18V90C18 92.3869 18.9482 94.6761 20.636 96.364C22.3239 98.0518 24.6131 99 27 99H81C83.3869 99 85.6761 98.0518 87.364 96.364C89.0518 94.6761 90 92.3869 90 90V36L63 9ZM58.5 18L81 40.5H58.5V18ZM38.3895 81H34.9695V74.6505H29.3175V81H25.866V65.8215H29.3175V71.6535H34.974V65.8215H38.394L38.3895 81ZM51.8895 68.706H47.745V81H44.298V68.706H40.2255V65.8215H51.8895V68.706ZM66.681 81L66.456 75.1905C66.3795 73.368 66.321 71.1585 66.321 68.949H66.249C65.781 70.8885 65.1465 73.0485 64.5615 74.8305L62.7165 80.7525H60.03L58.4145 74.871C57.8677 72.9185 57.4082 70.9425 57.0375 68.949H56.988C56.8935 71.001 56.835 73.341 56.7225 75.231L56.4525 81H53.28L54.252 65.8215H58.8195L60.309 70.8885C60.777 72.648 61.254 74.538 61.587 76.3155H61.6635C62.091 74.556 62.604 72.5535 63.1035 70.866L64.719 65.8215H69.201L70.0335 81H66.681ZM82.134 81H72.648V65.8215H76.0995V78.1155H82.1385L82.134 81Z" fill="#CC264E"/>
</svg>
