<svg width="99" height="108" viewBox="0 0 99 108" fill="none" xmlns="http://www.w3.org/2000/svg">
<path d="M4.5 13.5H85.5V94.5H4.5V13.5ZM78.8625 75.1815C78.273 71.487 75.8655 68.382 68.7285 65.484C66.2445 64.3185 63.486 63.513 62.658 61.641C62.352 60.525 62.307 59.922 62.505 59.2605C63.0135 57.0825 65.5965 56.43 67.6215 57.033C68.94 57.438 70.155 58.4505 70.9155 60.075C74.403 57.7935 74.403 57.7935 76.8375 56.277C75.924 54.864 75.4695 54.2475 74.862 53.64C72.7335 51.264 69.8985 50.049 65.295 50.1525L62.919 50.454C60.6375 51.012 58.4595 52.2315 57.1455 53.847C53.298 58.203 54.4095 65.7945 59.067 68.94C63.6705 72.3825 70.4115 73.1385 71.271 76.3785C72.081 80.3295 68.337 81.594 64.6335 81.1395C61.902 80.5275 60.381 79.164 58.7115 76.6305L52.5375 80.1765C53.244 81.792 54.054 82.503 55.269 83.9205C61.1415 89.8425 75.825 89.541 78.4575 80.5275C78.552 80.226 79.2675 78.1515 78.7095 74.961L78.8625 75.1815ZM48.546 50.7285H40.959C40.959 57.267 40.9275 63.7695 40.9275 70.3215C40.9275 74.4795 41.139 78.2955 40.4595 79.47C39.348 81.7965 36.4725 81.4995 35.172 81.0855C33.8355 80.4285 33.156 79.515 32.3685 78.201C32.157 77.85 31.9995 77.544 31.941 77.544L25.785 81.342C26.8155 83.4705 28.3185 85.2975 30.258 86.4585C33.1425 88.182 37.017 88.74 41.076 87.831C43.722 87.066 46.0035 85.4955 47.187 83.0655C48.915 79.929 48.546 76.077 48.5325 71.775C48.5685 64.8405 48.5325 57.9015 48.5325 50.9175L48.546 50.7285Z" fill="#CC264E"/>
</svg>
