<svg width="108" height="108" viewBox="0 0 108 108" fill="none" xmlns="http://www.w3.org/2000/svg">
<path d="M9.67501 75.51H16.74C16.8926 75.5116 17.0406 75.4577 17.1565 75.3584C17.2723 75.259 17.3482 75.121 17.37 74.97L18.945 66.78H24.435C26.7332 66.8375 29.0261 66.5338 31.23 65.88C33.0157 65.2894 34.6458 64.3052 36 63C37.2162 61.9066 38.236 60.6129 39.015 59.175C39.7855 57.7683 40.3321 56.25 40.635 54.675C41.1131 53.0238 41.1952 51.2832 40.8747 49.5944C40.5541 47.9056 39.8399 46.3161 38.79 44.955C37.5736 43.7189 36.1012 42.7642 34.4765 42.1578C32.8517 41.5514 31.1138 41.3081 29.385 41.445H15.885C15.7231 41.4523 15.5683 41.514 15.4458 41.6202C15.3233 41.7263 15.2402 41.8707 15.21 42.03L9.00001 74.7C8.93123 74.8889 8.93123 75.0961 9.00001 75.285C9.08588 75.3744 9.19218 75.4415 9.30976 75.4807C9.42735 75.5199 9.55269 75.53 9.67501 75.51ZM22.5 47.79H27C27.8562 47.675 28.7266 47.7311 29.5609 47.9551C30.3952 48.1791 31.1766 48.5666 31.86 49.095C32.625 49.905 32.76 51.435 32.355 53.595C32.1294 55.5274 31.2195 57.3153 29.79 58.635C28.0078 59.7634 25.908 60.2844 23.805 60.12H20.205L22.5 47.79ZM66.6 43.515C64.1638 41.7239 61.1473 40.9056 58.14 41.22H52.785L54.27 33.3C54.3139 33.2087 54.3367 33.1088 54.3367 33.0075C54.3367 32.9062 54.3139 32.8063 54.27 32.715C54.1102 32.6565 53.9348 32.6565 53.775 32.715H46.71C46.5574 32.7134 46.4094 32.7673 46.2936 32.8666C46.1777 32.9659 46.1018 33.1039 46.08 33.255L39.87 65.97C39.8266 66.0534 39.804 66.146 39.804 66.24C39.804 66.334 39.8266 66.4266 39.87 66.51C39.9231 66.5931 39.9963 66.6614 40.0828 66.7086C40.1694 66.7558 40.2664 66.7803 40.365 66.78H47.295C47.4546 66.7804 47.6084 66.7202 47.7253 66.6116C47.8422 66.5031 47.9136 66.3542 47.925 66.195L51.39 47.88H56.385C58.41 47.88 59.13 48.33 59.355 48.6C59.5382 49.0423 59.6325 49.5163 59.6325 49.995C59.6325 50.4737 59.5382 50.9477 59.355 51.39L56.61 65.97C56.5666 66.0534 56.544 66.146 56.544 66.24C56.544 66.334 56.5666 66.4266 56.61 66.51C56.6659 66.5904 56.7397 66.6566 56.8256 66.7035C56.9115 66.7503 57.0072 66.7765 57.105 66.78H64.125C64.287 66.7727 64.4417 66.711 64.5642 66.6048C64.6867 66.4986 64.7698 66.3542 64.8 66.195L67.68 50.895C68.1447 49.6749 68.2894 48.3562 68.1004 47.0645C67.9113 45.7727 67.3948 44.5507 66.6 43.515ZM86.94 41.22H72.855C72.7722 41.2139 72.6891 41.2242 72.6103 41.2503C72.5315 41.2764 72.4586 41.3178 72.3959 41.3722C72.3332 41.4265 72.2818 41.4928 72.2448 41.567C72.2077 41.6413 72.1857 41.7222 72.18 41.805L65.61 74.7C65.5691 74.7921 65.5479 74.8917 65.5479 74.9925C65.5479 75.0933 65.5691 75.1929 65.61 75.285C65.6705 75.3571 65.7463 75.4147 65.832 75.4536C65.9176 75.4926 66.0109 75.5118 66.105 75.51H73.44C73.6002 75.523 73.7593 75.4744 73.8847 75.374C74.0102 75.2736 74.0926 75.1291 74.115 74.97L75.78 66.78H81.495C83.8668 66.8321 86.2331 66.5288 88.515 65.88C90.4798 65.3334 92.2953 64.3488 93.825 63C95.0812 61.9098 96.1459 60.6169 96.975 59.175C97.7599 57.7703 98.3216 56.2522 98.64 54.675C99.1305 53.0223 99.2148 51.2757 98.8858 49.5835C98.5567 47.8912 97.8241 46.3034 96.75 44.955C95.4777 43.6662 93.9434 42.6658 92.2509 42.0215C90.5584 41.3771 88.7473 41.1038 86.94 41.22ZM89.73 53.685C89.4608 55.6335 88.5031 57.4214 87.03 58.725C85.1834 59.8586 83.0253 60.3784 80.865 60.21H77.265L79.695 47.79H84.195C85.9938 47.5695 87.8097 48.0355 89.28 49.095C90 49.905 90 51.435 89.73 53.685Z" fill="#CC264E"/>
</svg>
