<svg width="108" height="108" viewBox="0 0 108 108" fill="none" xmlns="http://www.w3.org/2000/svg">
<path d="M89.5095 35.046C92.7631 40.997 94.464 47.6722 94.455 54.4545C94.4567 61.5341 92.5998 68.4901 89.0698 74.6268C85.5399 80.7636 80.4606 85.8661 74.34 89.424L86.697 53.6985C89.0055 47.9295 89.775 43.308 89.775 39.213C89.7766 37.8197 89.6879 36.4278 89.5095 35.046ZM59.58 35.4375C61.1233 35.3616 62.6633 35.2295 64.197 35.0415C66.3795 34.758 66.123 31.554 63.945 31.671C63.945 31.671 57.3615 32.175 53.145 32.175C49.1535 32.175 42.4575 31.6125 42.4575 31.6125C40.266 31.5045 39.9825 34.821 42.183 34.9335C42.183 34.9335 44.2035 35.1675 46.404 35.271L52.6995 52.542L43.812 79.0875L29.079 35.3295C30.6244 35.2518 32.1671 35.1272 33.705 34.956C35.8965 34.6725 35.64 31.4685 33.4575 31.5945C33.4575 31.5945 26.91 32.112 22.68 32.112C21.9285 32.112 21.0375 32.0805 20.0925 32.0535C27.4185 21.267 39.879 14.0085 54 14.0085C64.5345 14.0085 74.1195 18.0315 81.3195 24.6285C81.1485 24.6195 80.9775 24.5925 80.793 24.5925C76.8195 24.5925 73.998 28.0575 73.998 31.7745C73.998 35.109 75.9195 37.935 77.9715 41.2605C79.515 43.965 81.3105 47.4255 81.3105 52.425C81.3105 55.8585 79.983 59.904 78.228 65.4705L74.196 78.912L59.571 35.3745L59.58 35.4375ZM54 94.8915C50.1312 94.8953 46.282 94.3436 42.57 93.2535L54.7065 57.9825L67.14 92.0565C67.2345 92.2545 67.329 92.439 67.4325 92.6145C63.1159 94.1283 58.5744 94.9012 54 94.9005M13.545 54.4545C13.5384 48.782 14.7315 43.1723 17.046 37.9935L36.3375 90.864C29.5041 87.546 23.7425 82.3717 19.7118 75.9329C15.6811 69.4941 13.544 62.0509 13.545 54.4545ZM54 9.4545C29.1915 9.4545 9 29.646 9 54.4545C9 79.263 29.1915 99.4545 54 99.4545C78.8085 99.4545 99 79.263 99 54.4545C99 29.646 78.8085 9.4545 54 9.4545Z" fill="#CC264E"/>
</svg>
